<svg width="54" height="54" viewBox="0 0 54 54" fill="none" xmlns="http://www.w3.org/2000/svg">
<circle cx="26.7283" cy="26.7283" r="26.7283" fill="#20B486"/>
<mask id="mask0_362_144" style="mask-type:alpha" maskUnits="userSpaceOnUse" x="0" y="0" width="54" height="54">
<circle cx="26.902" cy="26.902" r="26.5546" fill="#AA1234"/>
</mask>
<g mask="url(#mask0_362_144)">
<path d="M13.4064 42.0205L36.0251 34.1595L47.6922 45.7775L32.4278 61.0419L13.4064 42.0205Z" fill="#292E2B"/>
</g>
<path d="M32.1139 5.80713C34.5758 9.4801 32.3867 11.3414 29.93 12.4334C22.8817 14.9896 19.1343 15.9326 17.8438 17.5457C16.454 19.1738 17.9182 20.8216 18.8862 21.318C20.6929 22.3305 23.0969 23.5102 24.0731 23.9734C25.2146 24.6435 24.2219 25.264 23.8249 25.7851C23.4525 26.4304 24.3461 26.935 24.9417 27.2742C26.0019 27.8871 26.4447 28.3353 26.5815 28.5583C26.622 28.6243 26.6488 28.6982 26.6793 28.7694C26.8456 29.1572 26.8333 29.5643 26.803 29.7311C27.6964 28.5796 26.5796 27.3486 25.9095 26.8771C25.1352 26.202 25.984 25.3549 26.5052 25.0158C27.3589 24.4003 27.3489 23.9983 27.1752 23.7253C26.381 22.7574 24.8838 22.352 24.3709 22.1866C21.9487 21.4321 21.5748 20.3997 21.6906 19.9779C22.0678 18.9653 23.7339 18.6129 24.5198 18.5633C29.9995 17.8287 31.9897 17.2976 35.0423 15.1881C38.3181 12.6567 34.3061 7.85043 32.1139 5.80713Z" fill="white"/>
<rect x="40.2041" y="42.3086" width="26.9517" height="1.49306" rx="0.746531" transform="rotate(-180 40.2041 42.3086)" fill="white"/>
<path d="M38.8259 40.3562H14.6307V40.3562C14.6307 35.8421 18.2901 32.1635 22.8042 32.1635H30.6524C35.1665 32.1635 38.8259 35.8421 38.8259 40.3562V40.3562Z" fill="white"/>
<path d="M25.6116 31.2946C25.6116 31.089 25.7782 30.9224 25.9838 30.9224H27.4729C27.6785 30.9224 27.8451 31.089 27.8451 31.2946V31.2946C27.8451 31.5002 27.6785 31.6669 27.4729 31.6669H25.9838C25.7782 31.6669 25.6116 31.5002 25.6116 31.2946V31.2946Z" fill="#20B486"/>
</svg>
