<svg width="75" height="75" viewBox="0 0 75 75" fill="none" xmlns="http://www.w3.org/2000/svg">
<circle cx="37.3958" cy="37.3958" r="37.3958" fill="#F26E0D"/>
<mask id="mask0_785_1066" style="mask-type:alpha" maskUnits="userSpaceOnUse" x="0" y="0" width="75" height="75">
<circle cx="37.6371" cy="37.6389" r="37.1528" fill="#AA1234"/>
</mask>
<g mask="url(#mask0_785_1066)">
<path d="M18.7559 58.7913L50.402 47.7929L66.7254 64.0477L45.3689 85.4043L18.7559 58.7913Z" fill="#292E2B"/>
</g>
<path d="M44.9301 8.125C48.3746 13.2639 45.3119 15.8681 41.8745 17.3958C32.0132 20.9722 26.7702 22.2917 24.9647 24.5486C23.0203 26.8264 25.0688 29.1319 26.4231 29.8264C28.9509 31.2431 32.3144 32.8935 33.6801 33.5417C35.2772 34.4792 33.8883 35.3472 33.3329 36.0764C32.8119 36.9792 34.0621 37.6852 34.8954 38.1597C36.3787 39.0173 36.9983 39.6444 37.1897 39.9563C37.2464 40.0487 37.2839 40.1521 37.3266 40.2518C37.5591 40.7943 37.542 41.3639 37.4996 41.5972C38.7496 39.9861 37.1871 38.2639 36.2496 37.6042C35.1662 36.6597 36.3537 35.4745 37.0829 35C38.2773 34.1389 38.2633 33.5764 38.0204 33.1944C36.9092 31.8403 34.8144 31.2731 34.0968 31.0417C30.7079 29.9861 30.1848 28.5417 30.3468 27.9514C30.8746 26.5347 33.2056 26.0417 34.3051 25.9722C41.9718 24.9444 44.7563 24.2014 49.0273 21.25C53.6105 17.7083 47.9972 10.9838 44.9301 8.125Z" fill="white"/>
<rect x="56.25" y="59.1942" width="37.7083" height="2.08896" rx="1.04448" transform="rotate(-180 56.25 59.1942)" fill="white"/>
<path d="M54.3203 56.4625L20.4685 56.4625C20.4685 50.1468 25.5885 45 31.9042 45H42.8846C49.2004 45 54.3203 50.1468 54.3203 56.4625Z" fill="white"/>
<path d="M35.832 43.7847C35.832 43.4971 36.0652 43.2639 36.3529 43.2639H38.4362C38.7238 43.2639 38.957 43.4971 38.957 43.7847C38.957 44.0724 38.7238 44.3056 38.4362 44.3056H36.3529C36.0652 44.3056 35.832 44.0724 35.832 43.7847Z" fill="#F26E0D"/>
</svg>
